# xmcd
#
# Track frame offsets:
#	183
#	14093
#	27930
#	47975
#	59373
#	80055
#	95043
#	117975
#	139073
#	151513
#	164040
#	177785
#	194310
#	210428
#	231313
#	250078
#
# Disc length: 3551 seconds
#
# Revision: 1
# Processed by: cddbd v1.5.1PL0 Copyright (c) Steve Scherf et al.
# Submitted via: audiograbber 1.82.02
#
DISCID=de0ddd10
DTITLE=Junior Walker and the all Stars - Fortune
DYEAR=1900
DGENRE=
TTITLE0=Shotgun
TTITLE1=How Sweet it is
TTITLE2=Come see about me
TTITLE3=Home Cookin
TTITLE4=Money
TTITLE5=Pucker up Butterclub
TTITLE6=What does it take
TTITLE7=Hip City
TTITLE8=Cleo's Mood
TTITLE9=Shake and Fingerpop
TTITLE10=Shoot Your Shot
TTITLE11=Gotta hold on
TTITLE12=Way Back Home
TTITLE13=Holly Holly
TTITLE14=Way Back Home
TTITLE15=Walk in the Night
EXTD=
EXTT0=
EXTT1=
EXTT2=
EXTT3=
EXTT4=
EXTT5=
EXTT6=
EXTT7=
EXTT8=
EXTT9=
EXTT10=
EXTT11=
EXTT12=
EXTT13=
EXTT14=
EXTT15=
PLAYORDER=
